<?xml version="1.0" encoding="utf-8"?>
<!-- Generator: Adobe Illustrator 20.1.0, SVG Export Plug-In . SVG Version: 6.00 Build 0)  -->
<svg version="1.1" xmlns="http://www.w3.org/2000/svg" xmlns:xlink="http://www.w3.org/1999/xlink" x="0px" y="0px"
	 viewBox="0 0 383 341" style="enable-background:new 0 0 383 341;" xml:space="preserve">
<style type="text/css">
	.st0{fill:#E30613;}
	.st1{fill:#FFFFFF;}
	.st2{fill:#F18918;}
	.st3{fill:#6CB52D;}
	.st4{fill:#030304;}
</style>
<g id="Layer_1">
</g>
<g id="Layer_2">
	<g id="XMLID_2_">
		<g>
			<g>
				<path class="st0" d="M368.8,172.9c0.6,5.8,0.9,11.8,0.9,17.8c0,42.5-14.9,81.6-39.8,112.2l-2.8-0.8l-10.2-6.8l0.6-0.9
					c23.3-28.3,37.4-64.5,37.4-104c0-5.8-0.3-11.5-0.9-17.1h12.3L368.8,172.9z"/>
				<path class="st0" d="M368.8,172.9l-2.5,0.2H354c-4-38.5-21.4-73.1-47.5-98.9l10.7-9.6l0.1-0.1
					C345.8,92.8,364.7,130.7,368.8,172.9z"/>
				<path class="st1" d="M316.9,295.3l10.2,6.8l2.8,0.8c-7.6,9.4-16.1,18-25.5,25.6c-35.3-14-73.8-21.6-114.1-21.6
					c-39.7,0-77.6,7.5-112.5,21c-8.6-7.1-16.6-15.1-23.7-23.7l2.3-1.7l9.8-7.2c-23.8-28.4-38.1-65-38.1-104.9
					c0-5.8,0.3-11.5,0.9-17.1c3.9-37.1,20.1-70.5,44.6-96c29.7-31,71.6-50.3,117.9-50.3c44.9,0,85.5,18.1,115,47.4
					c26.1,25.8,43.5,60.4,47.5,98.9c0.6,5.6,0.9,11.4,0.9,17.1c0,39.5-14,75.8-37.4,104L316.9,295.3z"/>
				<path class="st2" d="M317.3,64.5l-0.1,0.1l-10.7,9.6c-29.5-29.3-70.2-47.4-115-47.4V15l0-2.5C240.6,12.5,285.1,32.4,317.3,64.5z
					"/>
				<path class="st2" d="M191.5,12.5l0,2.5v11.9c-46.4,0-88.2,19.3-117.9,50.3l-8.9-7.7l-2.1-1.7C94.9,33.7,140.7,12.5,191.5,12.5
					L191.5,12.5z"/>
				<path class="st3" d="M28.9,173.2c-0.6,5.6-0.9,11.4-0.9,17.1c0,39.9,14.3,76.5,38.1,104.9l-9.8,7.2l-2.3,1.7
					c-25.5-30.8-40.8-70.4-40.8-113.5c0-47.7,18.7-91,49.2-123l2.1,1.7l8.9,7.7C49.1,102.6,32.8,136.1,28.9,173.2z"/>
			</g>
			<g>
				<path class="st4" d="M305.1,332.5l-1.9-0.8c-35.9-14.2-73.9-21.4-112.8-21.4c-38.4,0-75.8,7-111.3,20.8l-1.9,0.7l-1.6-1.3
					c-8.8-7.3-16.9-15.4-24.2-24.2l0,0C24.6,274,9.8,232.9,9.8,190.7c0-46.9,17.8-91.4,50.2-125.4C94.6,29,141.3,9,191.5,9
					c48.5,0,94,18.8,128.3,53.1c29.7,29.7,48.4,68.9,52.5,110.6c0.6,6,0.9,12.1,0.9,18.1c0,41.6-14.4,82.2-40.5,114.4
					c-7.8,9.6-16.5,18.4-26,26.1L305.1,332.5z M190.3,303.4c39.1,0,77.3,7.1,113.5,21.1c8.5-7.1,16.4-15.1,23.4-23.8
					c25.1-31,39-70,39-110c0-5.8-0.3-11.6-0.9-17.4c-4-40-21.9-77.8-50.5-106.3c-33-32.9-76.8-51-123.4-51
					C143.2,16,98.3,35.2,65,70.1c-31.1,32.6-48.2,75.4-48.2,120.5c0,40.5,14.2,80.1,40,111.3c6.6,7.9,13.8,15.3,21.7,22
					C114.2,310.3,151.8,303.4,190.3,303.4z"/>
				<rect x="188" y="15" class="st4" width="7" height="18.1"/>
				<rect x="17.3" y="169.7" class="st4" width="19.4" height="7"/>
				<rect x="347" y="169.7" class="st4" width="19.4" height="7"/>
				
					<rect x="54.5" y="293.2" transform="matrix(0.8048 -0.5935 0.5935 0.8048 -163.5649 95.9895)" class="st4" width="19.4" height="7"/>
				
					<rect x="300.3" y="67.6" transform="matrix(0.7436 -0.6687 0.6687 0.7436 31.933 225.5142)" class="st4" width="19.4" height="7"/>
				
					<rect x="315.6" y="287" transform="matrix(0.5555 -0.8315 0.8315 0.5555 -104.8726 397.2018)" class="st4" width="7" height="19.4"/>
				
					<rect x="68.5" y="66.1" transform="matrix(0.6512 -0.7589 0.7589 0.6512 -32.4145 81.0652)" class="st4" width="7" height="19.4"/>
				<path class="st4" d="M65.2,296.4l-0.1-0.2C40.2,266.6,26.6,229,26.6,190.3c0-5.8,0.3-11.6,0.9-17.3c3.8-36.2,19.8-70.6,45-96.9
					c31.4-32.7,73.7-50.8,119-50.8c43.8,0,85,17,116.1,47.8c27,26.8,44,62.2,47.9,99.9c0.6,5.7,0.9,11.5,0.9,17.3
					c0,38.3-13.4,75.5-37.7,105l-2.3-1.9c23.9-28.9,37-65.5,37-103.1c0-5.7-0.3-11.4-0.9-17c-3.8-37-20.6-71.8-47.1-98
					c-30.5-30.3-71-46.9-114-46.9c-44.5,0-86,17.7-116.8,49.8c-24.8,25.8-40.5,59.6-44.2,95.1c-0.6,5.6-0.9,11.3-0.9,17
					c0,37.9,13.4,74.8,37.7,103.9l0.1,0.1l-0.9,0.7L65.2,296.4z"/>
			</g>
		</g>
	</g>
</g>
</svg>
